PathFileType	4	(X/Y/Z)	/Users/niels/Desktop/University/Third Semester/Perception and Action/Exam/Gymnastics Motion Tracking/Code for Gym Tracking/Analyzed Data/Webcam_Backflip/id2006_1_baseline_Sports2D/id2006_1_baseline_Sports2D_px_person00.trc
DataRate	CameraRate	NumFrames	NumMarkers	Units	OrigDataRate	OrigDataStartFrame	OrigNumFrames
29.782608695652176	29.782608695652176	7	22	m	29.782608695652176	34	138
Frame#	Time	Hip			RHip			RKnee			RAnkle			RBigToe			RSmallToe			RHeel			LHip			LKnee			LAnkle			LBigToe			LSmallToe			LHeel			Neck			Head			Nose			RShoulder			RElbow			RWrist			LShoulder			LElbow			LWrist		
		X1	Y1	Z1	X2	Y2	Z2	X3	Y3	Z3	X4	Y4	Z4	X5	Y5	Z5	X6	Y6	Z6	X7	Y7	Z7	X8	Y8	Z8	X9	Y9	Z9	X10	Y10	Z10	X11	Y11	Z11	X12	Y12	Z12	X13	Y13	Z13	X14	Y14	Z14	X15	Y15	Z15	X16	Y16	Z16	X17	Y17	Z17	X18	Y18	Z18	X19	Y19	Z19	X20	Y20	Z20	X21	Y21	Z21	X22	Y22	Z22
34	1.1416058394160582	0.920613383528911	-0.7210660699582085	0.0	0.8950854981105564	-0.7255458980708919	0.0	0.9081400698840282	-1.046820771308344	0.0	0.9848685972849128	-1.0830471982528809	0.0	1.3936757812500116	-1.015683593749974	0.0	1.3612734375000102	-1.0318847656249752	0.0	1.1636645507812065	-1.0892622070312366	0.0	0.9586402089647421	-0.7289371838342908	0.0	0.95316808388631	-1.0426871416223304	0.0	0.9672172237284395	-1.0885166975945177	0.0	1.4993579101562495	-0.6945361328125002	0.0	1.50501708984375	-0.7143432617187496	0.0	1.4342773437499998	-0.8416748046874999	0.0	0.9442930383619216	-0.28058760274068834	0.0	0.9716491005868511	-0.09992043260415581	0.0	0.9923964218968416	-0.19696084126339372	0.0	0.8872251919723357	-0.32234238017656625	0.0	1.064908590976415	-0.426165392427584	0.0	1.2790436821775308	-0.4767866313031964	0.0	0.9913995626067758	-0.32881405659200685	0.0	1.10013463505432	-0.4373107804714349	0.0	1.276534608757478	-0.4698923243386656	0.0
35	1.1751824817518246	0.9213698617607317	-0.7205880288385323	0.0	0.8964954478980613	-0.7247493058508666	0.0	0.9090706377685961	-1.0478001132371646	0.0	0.984873686424265	-1.0830446103520102	0.0	1.3936757812500005	-1.0156835937499797	0.0	1.3612734374999946	-1.0318847656249819	0.0	1.163664550781153	-1.0892622070312632	0.0	0.9565154101186367	-0.7277716662244534	0.0	0.9526317855408679	-1.0433116705001975	0.0	0.9672307114274404	-1.0885260237354344	0.0	1.4993579101562498	-0.6945361328125003	0.0	1.5050170898437507	-0.7143432617187494	0.0	1.4342773437499954	-0.8416748046874999	0.0	0.9418273974244991	-0.27730586955790965	0.0	0.9698896249248813	-0.09678663370274221	0.0	0.9912633579406264	-0.19432146715338983	0.0	0.887430672483257	-0.31749363111790213	0.0	1.0786186728283942	-0.3882752594117455	0.0	1.2978139678240899	-0.40661365917396475	0.0	0.9889283779477821	-0.3274832416957204	0.0	1.1156551231679392	-0.40934638183690064	0.0	1.2918375330402196	-0.41211582494361015	0.0
36	1.208759124087591	0.9229537600224519	-0.7201027209847438	0.0	0.8992431418855698	-0.7236785158752606	0.0	0.9107244913484064	-1.048928108327203	0.0	0.9848812880654134	-1.0830412576943238	0.0	1.393675781249973	-1.0156835937500068	0.0	1.3612734374999604	-1.0318847656250096	0.0	1.163664550781086	-1.089262207031319	0.0	0.9558290461683551	-0.7269823293294126	0.0	0.9534371060547556	-1.0441348211758088	0.0	0.9672749871953419	-1.0885521001962621	0.0	1.4993579101562504	-0.6945361328125004	0.0	1.5050170898437518	-0.7143432617187493	0.0	1.4342773437499878	-0.8416748046875	0.0	0.939539650264378	-0.27401084779988477	0.0	0.968886057811072	-0.09354585389523822	0.0	0.9910930014818656	-0.19185763193317584	0.0	0.8886969668054364	-0.31169842627735894	0.0	1.0890709994094887	-0.3471951908107703	0.0	1.3070808618727516	-0.3306479312629611	0.0	0.9871342425528282	-0.3279700543381971	0.0	1.1278725221571981	-0.3862313861123158	0.0	1.2986705181669254	-0.3565381373640321	0.0
37	1.2423357664233574	0.9255988662652925	-0.7197188786107249	0.0	0.9034567801675845	-0.7223935529933853	0.0	0.9131511164097418	-1.0503000425860112	0.0	0.9848900074799808	-1.0830382438457766	0.0	1.3936757812499236	-1.0156835937500681	0.0	1.3612734374999034	-1.0318847656250707	0.0	1.1636645507810306	-1.0892622070314089	0.0	0.9571148845985475	-0.7267058120414129	0.0	0.9557315916635121	-1.0452182543856312	0.0	0.9673403170603919	-1.0886000883502716	0.0	1.4993579101562517	-0.6945361328125005	0.0	1.5050170898437534	-0.7143432617187495	0.0	1.4342773437499776	-0.8416748046875002	0.0	0.9379209919530813	-0.2708768983020352	0.0	0.968418908438995	-0.09024211988187181	0.0	0.9919579080139717	-0.18954886733993317	0.0	0.8910064277027978	-0.3051711763141939	0.0	1.0963332222159792	-0.3047254941079448	0.0	1.3060337947539185	-0.2536031619115039	0.0	0.9878051230085269	-0.32941461529803207	0.0	1.1367982775088588	-0.3684809157629169	0.0	1.2979692204020288	-0.30462900700893597	0.0
38	1.2759124087591238	0.9292819605152898	-0.7195800561630099	0.0	0.9092780153741177	-0.7213437891194717	0.0	0.9165374160934243	-1.0520342865652605	0.0	0.9848957353640455	-1.0830380207060382	0.0	1.3936757812498537	-1.0156835937501718	0.0	1.3612734374998283	-1.0318847656251724	0.0	1.163664550781039	-1.089262207031523	0.0	0.9595931743961212	-0.7271993308431345	0.0	0.9588120629227025	-1.046740345185948	0.0	0.9674098424563013	-1.0886710901994066	0.0	1.499357910156254	-0.6945361328125005	0.0	1.5050170898437547	-0.7143432617187504	0.0	1.4342773437499674	-0.8416748046875006	0.0	0.9372028339159827	-0.26810056618555317	0.0	0.968348300915005	-0.08692892648135112	0.0	0.9937216931688412	-0.18732838684742395	0.0	0.8944317593412707	-0.2982890124321206	0.0	1.100732872139945	-0.2637460745871917	0.0	1.2958435761754692	-0.18203714915607327	0.0	0.9907790862357058	-0.3304856783421548	0.0	1.14184824080025	-0.35542000388727624	0.0	1.2914052075057616	-0.25712092937030734	0.0
39	1.3094890510948902	0.933757335521102	-0.7197658587306764	0.0	0.9167659201575411	-0.721084373002367	0.0	0.9210796365611844	-1.0541247775100115	0.0	0.9848904724126166	-1.0830447038298185	0.0	1.3936757812497795	-1.0156835937503108	0.0	1.361273437499759	-1.031884765625306	0.0	1.1636645507811971	-1.0892622070316211	0.0	0.961533706066791	-0.728657311652046	0.0	0.9615051082388353	-1.0488039954032213	0.0	0.9674495449966366	-1.088753587805048	0.0	1.4993579101562569	-0.6945361328125	0.0	1.5050170898437547	-0.7143432617187522	0.0	1.4342773437499643	-0.8416748046875009	0.0	0.9372935535705246	-0.26578693989986774	0.0	0.9687678786499528	-0.0837059731464688	0.0	0.9961156566012936	-0.185064587439471	0.0	0.8991425399883739	-0.29141771908593433	0.0	1.1027361169771472	-0.22733722687517902	0.0	1.2792452120829712	-0.12240072579285458	0.0	0.9937816717655964	-0.33000794551471674	0.0	1.1417348090962258	-0.34692737624626924	0.0	1.281102202842995	-0.21534600942868143	0.0
40	1.3430656934306566	0.9386836717387055	-0.7201216607320046	0.0	0.9257376841536415	-0.7217595078535746	0.0	0.9268324898921932	-1.0563456822881194	0.0	0.9848620245214554	-1.0830637488624728	0.0	1.3936757812497438	-1.0156835937504443	0.0	1.3612734374997486	-1.03188476562543	0.0	1.1636645507816141	-1.0892622070316162	0.0	0.9613925294552231	-0.7308878741720289	0.0	0.9629474128015506	-1.0511949627155723	0.0	0.9673989844967446	-1.0888119367797073	0.0	1.4993579101562593	-0.6945361328124988	0.0	1.5050170898437518	-0.7143432617187551	0.0	1.43427734374998	-0.8416748046875011	0.0	0.9379719846964732	-0.26385521005383755	0.0	0.9698893528366078	-0.08068209801727666	0.0	0.998822941827602	-0.18254435474591052	0.0	0.9051949545435726	-0.28484930969628025	0.0	1.1031559429715991	-0.19753492431800132	0.0	1.259498567925884	-0.07878272666987245	0.0	0.9939029926867815	-0.3275130074007011	0.0	1.1357862529524987	-0.3437826409266168	0.0	1.2694973158593033	-0.18133907523707302	0.0
